<?xml version="1.0" standalone="no"?>
<!DOCTYPE svg PUBLIC "-//W3C//DTD SVG 20010904//EN"
 "http://www.w3.org/TR/2001/REC-SVG-20010904/DTD/svg10.dtd">
<svg version="1.0" xmlns="http://www.w3.org/2000/svg"
 width="424.000000pt" height="424.000000pt" viewBox="0 0 424.000000 424.000000"
 preserveAspectRatio="xMidYMid meet">
<metadata>
Created by potrace 1.14, written by Peter Selinger 2001-2017
</metadata>
<g transform="translate(0.000000,424.000000) scale(0.100000,-0.100000)"
fill="#000000" stroke="none">
<path d="M0 2120 c0 -2113 0 -2120 20 -2120 11 0 20 5 20 10 0 6 18 10 40 10
22 0 40 -4 40 -10 0 -5 18 -10 40 -10 22 0 40 5 40 10 0 6 18 10 40 10 22 0
40 -4 40 -10 0 -5 18 -10 40 -10 22 0 40 5 40 10 0 6 18 10 40 10 22 0 40 -4
40 -10 0 -5 18 -10 40 -10 22 0 40 5 40 10 0 6 18 10 40 10 22 0 40 -4 40 -10
0 -5 18 -10 40 -10 22 0 40 5 40 10 0 6 18 10 40 10 22 0 40 -4 40 -10 0 -5
18 -10 40 -10 22 0 40 5 40 10 0 6 18 10 40 10 22 0 40 -4 40 -10 0 -5 18 -10
40 -10 22 0 40 5 40 10 0 6 18 10 40 10 22 0 40 -4 40 -10 0 -5 18 -10 40 -10
22 0 40 5 40 10 0 6 18 10 40 10 22 0 40 -4 40 -10 0 -5 18 -10 40 -10 22 0
40 5 40 10 0 6 18 10 40 10 22 0 40 -4 40 -10 0 -5 18 -10 40 -10 22 0 40 5
40 10 0 6 18 10 40 10 22 0 40 -4 40 -10 0 -5 18 -10 40 -10 22 0 40 5 40 10
0 6 18 10 40 10 22 0 40 -4 40 -10 0 -5 18 -10 40 -10 22 0 40 5 40 10 0 6 18
10 40 10 22 0 40 -4 40 -10 0 -5 18 -10 40 -10 22 0 40 5 40 10 0 6 18 10 40
10 22 0 40 -4 40 -10 0 -5 18 -10 40 -10 22 0 40 5 40 10 0 6 18 10 40 10 22
0 40 -4 40 -10 0 -5 18 -10 40 -10 22 0 40 5 40 10 0 6 18 10 40 10 22 0 40
-4 40 -10 0 -5 18 -10 40 -10 22 0 40 5 40 10 0 6 18 10 40 10 22 0 40 -4 40
-10 0 -5 18 -10 40 -10 22 0 40 5 40 10 0 6 18 10 40 10 22 0 40 -4 40 -10 0
-5 18 -10 40 -10 22 0 40 5 40 10 0 6 18 10 40 10 22 0 40 -4 40 -10 0 -5 18
-10 40 -10 22 0 40 5 40 10 0 6 18 10 40 10 22 0 40 -4 40 -10 0 -5 18 -10 40
-10 22 0 40 5 40 10 0 6 18 10 40 10 22 0 40 -4 40 -10 0 -5 18 -10 40 -10 22
0 40 5 40 10 0 6 18 10 40 10 22 0 40 -4 40 -10 0 -5 18 -10 40 -10 22 0 40 5
40 10 0 6 18 10 40 10 22 0 40 -4 40 -10 0 -5 18 -10 40 -10 22 0 40 5 40 10
0 6 18 10 40 10 22 0 40 -4 40 -10 0 -5 18 -10 40 -10 22 0 40 5 40 10 0 6 18
10 40 10 22 0 40 -4 40 -10 0 -5 18 -10 40 -10 22 0 40 5 40 10 0 6 18 10 40
10 22 0 40 -4 40 -10 0 -5 18 -10 40 -10 22 0 40 5 40 10 0 6 18 10 40 10 22
0 40 -4 40 -10 0 -5 18 -10 40 -10 22 0 40 5 40 10 0 6 9 10 20 10 20 0 20 7
20 2110 l0 2110 -2120 0 -2120 0 0 -2120z m1705 1521 c46 -21 79 -54 94 -94 6
-16 11 -96 11 -178 0 -159 2 -165 48 -133 42 29 47 52 52 239 l5 180 288 3
287 2 0 -302 c0 -167 3 -333 7 -370 l6 -68 -347 0 -346 0 0 -95 0 -95 -45 0
-45 0 0 95 0 95 -180 0 -180 0 2 -197 3 -198 272 -3 272 -2 3 97 3 98 43 3 42
3 0 -69 c0 -38 3 -103 6 -145 l7 -77 -372 0 -371 0 0 290 0 290 225 0 225 0 0
49 0 49 -162 4 c-182 4 -206 10 -254 73 -79 103 -11 248 122 263 47 5 46 3 59
85 10 64 86 123 160 126 11 0 38 -8 60 -18z m-981 -2163 c11 -38 23 -68 27
-68 4 0 15 32 24 70 l17 71 56 -3 56 -3 17 -68 c9 -38 20 -71 22 -74 3 -3 11
15 17 38 29 113 26 109 86 109 68 0 68 6 6 -210 l-47 -165 -57 -3 -57 -3 -17
61 c-9 33 -20 63 -25 66 -5 2 -16 -21 -25 -53 -9 -32 -20 -62 -25 -67 -9 -10
-96 -12 -105 -3 -7 6 -104 348 -104 365 0 10 15 12 57 10 l58 -3 19 -67z m796
23 c0 -64 -12 -73 -102 -71 -98 2 -109 -2 -23 -9 l70 -6 0 -55 0 -55 -70 -6
c-83 -7 -82 -9 5 -13 132 -5 120 0 120 -54 0 -26 -4 -52 -9 -57 -6 -6 -69 -8
-153 -5 l-143 5 -3 188 -2 187 155 0 155 0 0 -49z m222 -83 l3 -133 93 -3 c83
-2 92 -5 93 -22 1 -11 2 -30 3 -42 5 -51 -1 -53 -158 -50 l-146 3 0 190 0 189
55 0 54 0 3 -132z m606 75 l-3 -58 -92 -3 c-107 -3 -127 -22 -24 -22 66 0 69
-1 75 -26 4 -14 4 -40 0 -59 l-6 -34 -67 -3 -66 -3 -3 -57 c-2 -42 -7 -58 -17
-59 -54 -3 -83 -1 -93 5 -13 8 -18 357 -5 369 3 4 73 7 155 7 l149 0 -3 -57z
m366 -123 c37 -100 66 -186 64 -192 -2 -6 -26 -12 -52 -13 -45 -2 -50 0 -68
32 -18 30 -24 33 -69 33 -43 0 -50 -3 -63 -29 -13 -24 -23 -30 -61 -33 -29 -2
-50 1 -57 9 -7 9 10 65 59 193 l68 180 56 0 56 0 67 -180z m443 160 c55 -33
68 -117 30 -193 l-24 -46 29 -49 c15 -27 26 -56 23 -63 -5 -12 -39 -16 -102
-10 -6 1 -21 18 -34 39 -52 87 -79 90 -79 11 0 -27 -3 -49 -7 -50 -13 -2 -57
-2 -80 0 -23 1 -23 1 -23 191 l0 190 118 0 c98 0 122 -3 149 -20z m471 -37
l-3 -58 -88 -1 c-48 0 -90 -4 -94 -7 -3 -4 26 -7 65 -7 l72 0 0 -60 0 -60 -65
0 c-37 0 -65 -4 -65 -10 0 -6 17 -8 43 -5 23 3 63 3 90 -1 l47 -6 0 -54 0 -55
-152 3 -153 3 -3 175 c-1 96 0 180 2 187 4 10 43 13 156 13 l151 0 -3 -57z
m-2356 -590 c54 -31 73 -76 73 -168 0 -63 -4 -88 -21 -115 -41 -71 -124 -101
-221 -80 -57 13 -103 54 -122 109 -26 78 -4 201 42 240 54 44 185 51 249 14z
m455 4 c16 -9 35 -29 42 -44 10 -25 12 -40 12 -103 0 -8 2 -41 5 -73 11 -112
-29 -151 -156 -151 -87 0 -131 18 -155 64 -18 34 -20 97 -4 102 9 3 9 9 0 25
-16 31 -14 109 4 143 9 17 17 30 18 30 1 0 20 7 42 15 49 19 148 14 192 -8z
m-1107 -52 l0 -65 60 0 59 0 3 63 3 62 58 3 57 3 0 -191 0 -190 -54 0 c-62 0
-66 5 -66 81 l0 49 -60 0 -60 0 0 -65 0 -65 -54 0 c-36 0 -56 5 -59 13 -8 20
-9 311 -1 341 6 24 10 26 60 26 l54 0 0 -65z m1566 31 c32 -32 34 -38 34 -104
0 -61 -3 -75 -26 -101 -27 -33 -76 -51 -136 -51 -36 0 -37 -1 -40 -42 l-3 -43
-49 -3 c-32 -2 -52 1 -57 10 -5 7 -9 93 -9 191 l0 177 126 0 126 0 34 -34z
m262 -153 l-3 -188 -49 -3 c-32 -2 -52 1 -57 10 -5 7 -9 93 -9 191 l0 177 60
0 60 0 -2 -187z m436 171 c8 -22 7 -66 -2 -81 -4 -6 -28 -13 -52 -15 l-45 -3
-5 -130 -5 -130 -52 -3 c-63 -4 -62 -6 -66 153 l-2 110 -47 3 -48 3 0 55 0 54
159 0 c136 0 160 -2 165 -16z m352 -154 c35 -91 63 -175 64 -187 0 -21 -5 -23
-54 -23 -50 0 -54 2 -66 30 -12 28 -16 30 -67 30 -51 0 -55 -2 -64 -30 -10
-28 -14 -30 -64 -30 -33 0 -55 5 -58 13 -3 9 76 232 123 345 9 21 16 23 66 20
l56 -3 64 -165z m294 40 l0 -129 93 -3 92 -3 0 -55 0 -55 -150 0 -150 0 -3
188 -2 187 60 0 60 0 0 -130z"/>
<path d="M1594 3547 c-27 -23 -29 -31 -32 -106 l-4 -81 -73 0 c-58 0 -77 -4
-99 -21 -32 -25 -36 -79 -7 -108 27 -27 66 -32 211 -29 l125 3 3 156 c2 137 0
159 -15 178 -29 34 -74 37 -109 8z"/>
<path d="M2007 3563 c-4 -3 -7 -65 -7 -137 0 -105 -4 -139 -19 -171 -22 -49
-86 -108 -135 -126 -36 -13 -37 -14 -34 -64 l3 -50 293 -3 292 -2 0 280 0 280
-193 0 c-107 0 -197 -3 -200 -7z"/>
<path d="M620 1518 c0 -23 79 -301 89 -311 4 -4 23 -7 41 -5 33 3 34 5 59 91
13 48 30 86 35 84 6 -2 22 -43 35 -91 l25 -87 40 3 41 3 42 150 c23 83 42 156
43 163 0 15 -56 17 -65 2 -4 -6 -17 -49 -30 -96 -23 -85 -31 -102 -40 -93 -2
3 -15 45 -28 94 -25 94 -39 112 -78 102 -21 -5 -27 -18 -48 -102 -14 -52 -29
-94 -35 -92 -5 2 -21 46 -36 98 -25 93 -26 94 -58 97 -21 2 -32 -1 -32 -10z"/>
<path d="M1237 1523 c-4 -3 -7 -78 -7 -165 l0 -158 130 0 130 0 0 30 0 30 -95
0 -95 0 0 35 0 35 70 0 c39 0 71 4 71 10 6 45 6 45 -66 50 l-70 5 0 35 0 35
93 3 92 3 0 29 0 30 -123 0 c-68 0 -127 -3 -130 -7z"/>
<path d="M1650 1366 l0 -166 130 0 130 0 0 30 0 30 -95 0 -94 0 -3 133 -3 132
-32 3 -33 3 0 -165z"/>
<path d="M2065 1517 c-3 -7 -4 -80 -3 -162 l3 -150 32 -3 32 -3 7 60 6 60 67
3 c64 3 66 4 69 31 l3 27 -70 0 -71 0 0 45 0 45 96 0 95 0 -3 28 -3 27 -128 3
c-98 2 -129 0 -132 -11z"/>
<path d="M2552 1518 c-9 -13 -122 -299 -122 -312 0 -3 15 -6 34 -6 29 0 36 5
45 30 10 29 11 30 80 30 68 0 69 -1 80 -30 9 -26 15 -30 47 -30 30 0 35 3 29
18 -4 9 -30 78 -58 152 -28 74 -55 141 -60 148 -5 6 -22 12 -37 12 -15 0 -32
-6 -38 -12z m62 -138 c22 -56 21 -60 -24 -60 -27 0 -40 4 -40 14 0 21 29 86
39 86 5 0 16 -18 25 -40z"/>
<path d="M2904 1517 c-2 -7 -3 -80 -2 -162 l3 -150 32 -3 32 -3 3 53 c3 53 3
53 38 56 33 2 37 -1 65 -50 28 -48 35 -53 69 -56 l38 -3 -32 57 -33 57 21 16
c66 51 51 169 -26 190 -55 16 -201 14 -208 -2z m190 -63 c20 -19 21 -58 2 -73
-8 -7 -37 -11 -68 -9 -52 3 -53 4 -56 36 -2 19 -1 40 2 48 8 20 100 19 120 -2z"/>
<path d="M3004 1419 c-11 -18 11 -31 47 -27 23 2 35 9 37 21 3 14 -4 17 -37
17 -22 0 -43 -5 -47 -11z"/>
<path d="M3347 1524 c-4 -4 -7 -79 -7 -166 l0 -158 130 0 130 0 0 30 0 30 -96
0 -95 0 3 37 3 37 68 -3 67 -2 0 30 0 30 -67 3 -68 3 0 35 0 35 93 3 93 3 -3
27 -3 27 -121 3 c-66 1 -123 -1 -127 -4z"/>
<path d="M1114 900 c-23 -3 -53 -13 -67 -23 -37 -24 -61 -95 -54 -163 10 -102
54 -139 162 -139 125 0 170 49 163 180 -2 55 -8 79 -23 95 -40 44 -104 62
-181 50z m89 -62 c37 -19 46 -40 47 -101 0 -74 -27 -107 -89 -107 -80 0 -123
79 -87 163 21 52 79 72 129 45z"/>
<path d="M1107 792 c-26 -29 -23 -107 5 -126 31 -22 74 -20 98 4 24 24 27 86
4 118 -20 28 -83 31 -107 4z"/>
<path d="M1560 899 c-57 -11 -80 -38 -80 -94 0 -70 22 -87 118 -94 93 -7 111
-18 94 -56 -11 -24 -16 -26 -70 -23 -48 3 -59 7 -67 26 -7 16 -18 22 -44 22
-32 0 -33 -1 -27 -32 8 -45 37 -65 100 -73 67 -9 129 1 158 25 18 15 23 28 23
69 0 75 -20 90 -126 99 -79 7 -84 8 -87 31 -5 32 21 51 70 51 29 0 41 -6 54
-25 12 -19 25 -25 50 -25 36 0 39 5 24 44 -18 50 -99 73 -190 55z"/>
<path d="M1580 800 c0 -5 18 -10 40 -10 22 0 40 5 40 10 0 6 -18 10 -40 10
-22 0 -40 -4 -40 -10z"/>
<path d="M1585 660 c3 -5 21 -10 40 -10 19 0 37 5 40 10 4 6 -12 10 -40 10
-28 0 -44 -4 -40 -10z"/>
<path d="M520 740 l0 -160 35 0 34 0 3 63 3 62 83 3 82 3 0 -66 0 -65 35 0 35
0 0 160 0 160 -35 0 -35 0 0 -65 0 -66 -82 3 -83 3 -3 63 -3 62 -34 0 -35 0 0
-160z"/>
<path d="M1930 741 l0 -161 35 0 c35 0 35 0 35 45 l0 45 55 0 c109 0 153 42
142 136 -8 77 -28 88 -157 92 l-110 4 0 -161z m194 67 c7 -18 6 -35 -2 -53
-10 -22 -17 -25 -67 -25 l-55 0 0 55 0 56 57 -3 c52 -3 58 -5 67 -30z"/>
<path d="M2027 803 c-4 -3 -7 -17 -7 -30 0 -20 5 -23 39 -23 42 0 61 21 40 46
-12 14 -60 19 -72 7z"/>
<path d="M2350 740 l0 -160 39 0 39 0 1 160 2 160 -41 0 -40 0 0 -160z"/>
<path d="M2578 895 c-3 -3 -3 -17 0 -30 4 -23 9 -25 53 -25 l49 0 0 -130 0
-130 35 0 35 0 0 129 0 130 53 3 c48 3 52 5 55 31 l3 27 -139 0 c-76 0 -141
-2 -144 -5z"/>
<path d="M3013 740 l-60 -160 33 0 c26 0 36 6 46 28 12 25 18 27 81 30 67 3
68 3 78 -28 9 -26 16 -30 46 -30 24 0 34 4 31 13 -3 6 -29 78 -59 159 l-54
148 -41 0 -41 0 -60 -160z m134 -34 c-7 -18 -62 -22 -72 -6 -3 5 4 31 15 57
l22 48 20 -41 c12 -23 18 -49 15 -58z"/>
<path d="M3430 740 l0 -160 130 0 130 0 0 25 c0 24 -2 24 -92 27 l-93 3 -3
133 -3 132 -34 0 -35 0 0 -160z"/>
</g>
</svg>
